<svg xmlns="http://www.w3.org/2000/svg" width="649px" height="515px" style="shape-rendering:geometricPrecision;text-rendering:geometricPrecision;image-rendering:optimizeQuality;fill-rule:evenodd;clip-rule:evenodd"><g style="fill:#06141f;fill-opacity:1"><path fill="#1e3a6c" d="M1.5 3.5c213.334-.333 426.668 0 640 1a80108.357 80108.357 0 0 0-95.5 192c-42.319-28.839-88.819-47.839-139.5-57a29633.458 29633.458 0 0 1 28.5 296L323.5 511c-1.333.667-2.667.667-4 0l-119-76.5a13585.325 13585.325 0 0 0 34-298c-48.503 13.173-94.336 32.506-137.5 58A96395.802 96395.802 0 0 1 1.5 3.5Z" style="opacity:1;fill:#06141f;fill-opacity:1"/></g><path fill="#33507c" d="M609.5 23.5h-574a61.295 61.295 0 0 1 5.5-2c189.598.666 379.098 1.333 568.5 2Z" style="opacity:1"/><path fill="#fdfdfc" d="M35.5 23.5h574a5272.506 5272.506 0 0 1-54 83 18.45 18.45 0 0 0-6-1 7.248 7.248 0 0 0-2.5 2 17.65 17.65 0 0 1 .5-6 337.642 337.642 0 0 1 13-21 1541.89 1541.89 0 0 0 29-45c.543-.06.876-.393 1-1a71826.12 71826.12 0 0 0-536-1c-.237 1.291.096 2.291 1 3a553.693 553.693 0 0 1 16 27c-.321 1.548-1.321 2.215-3 2-1.135 5.294-2.635 5.294-4.5 0a4.932 4.932 0 0 0-.5 3 1545.458 1545.458 0 0 1-28-45Z" style="opacity:1"/><path fill="#eb4f4d" d="M589.5 35.5c-88.833-.667-177.833-1-267-1-89.336 0-178.336.667-267 2-.904-.709-1.237-1.709-1-3 178.668-.333 357.335 0 536 1-.124.607-.457.94-1 1Z" style="opacity:1"/><g style="fill:#eb0028;fill-opacity:1"><path fill="#a82b2e" d="M266.5 102.5c-52.237-.305-102.904 8.361-152 26a4.933 4.933 0 0 1-2.5-1 1507.896 1507.896 0 0 1-26.5-44 467.628 467.628 0 0 1 23-4.5 1742.762 1742.762 0 0 1 213-14 233.549 233.549 0 0 0-21 15l-6 2.5a414.8 414.8 0 0 1-22 17.5c-1.717 1.559-3.717 2.392-6 2.5Z" style="opacity:1;fill:#eb0028;fill-opacity:1"/></g><g style="fill:#eb0028;fill-opacity:1"><path fill="#a82b2e" d="M560.5 80.5a337.642 337.642 0 0 0-13 21 429.94 429.94 0 0 0-15.5 24c-.739 1.074-1.739 1.741-3 2-49.82-16.54-100.987-24.874-153.5-25 5.417 90.669 10.917 181.336 16.5 272a361.826 361.826 0 0 1 1 37l-71 38a7300.453 7300.453 0 0 1-71.5-37.5c-.752-.671-1.086-1.504-1-2.5a1262.08 1262.08 0 0 1 71-42.5 11.333 11.333 0 0 0 1.5-3.5c.5-99.666.667-199.333.5-299a2037.694 2037.694 0 0 1 238 16Z" style="opacity:1;fill:#eb0028;fill-opacity:1"/></g><g style="fill:#eb605b;fill-opacity:1"><path fill="#e63237" d="M589.5 35.5a1541.89 1541.89 0 0 1-29 45 2037.694 2037.694 0 0 0-238-16c.167 99.667 0 199.334-.5 299a11.333 11.333 0 0 1-1.5 3.5 1262.08 1262.08 0 0 0-71 42.5c5.634-102.338 11.3-204.671 17-307 2.283-.108 4.283-.941 6-2.5a414.8 414.8 0 0 0 22-17.5l6-2.5a233.549 233.549 0 0 1 21-15 1742.762 1742.762 0 0 0-213 14 467.628 467.628 0 0 0-23 4.5l-14-20a553.693 553.693 0 0 0-16-27c88.664-1.333 177.664-2 267-2 89.167 0 178.167.333 267 1Z" style="opacity:1;fill:#eb605b;fill-opacity:1"/></g><path fill="#fafaf9" d="m71.5 63.5 14 20a1507.896 1507.896 0 0 0 26.5 44 4.933 4.933 0 0 0 2.5 1c49.096-17.639 99.763-26.305 152-26-5.7 102.329-11.366 204.662-17 307-.086.996.248 1.829 1 2.5a7300.453 7300.453 0 0 0 71.5 37.5l71-38a361.826 361.826 0 0 0-1-37 149110.615 149110.615 0 0 1-16.5-272c52.513.126 103.68 8.46 153.5 25 1.261-.259 2.261-.926 3-2a429.94 429.94 0 0 1 15.5-24 17.65 17.65 0 0 0-.5 6 7.248 7.248 0 0 1 2.5-2 18.45 18.45 0 0 1 6 1 227.897 227.897 0 0 1-22 34c-31.305-11.962-63.638-19.795-97-23.5a634.576 634.576 0 0 0-50-4.5 120904.118 120904.118 0 0 0 18 300.5l-1 4.5a4727.463 4727.463 0 0 1-81 44 4885.974 4885.974 0 0 1-83-44l-1-4.5a98990.586 98990.586 0 0 0 17-299.5c-50.185.67-98.685 10.004-145.5 28a3.943 3.943 0 0 1-2-1 5317.173 5317.173 0 0 0-44.5-72 4.932 4.932 0 0 1 .5-3c1.865 5.294 3.365 5.294 4.5 0 1.679.215 2.679-.452 3-2Z" style="opacity:1"/></svg>