<svg xmlns="http://www.w3.org/2000/svg" width="270.58261" height="251.89113" fill-rule="evenodd" clip-rule="evenodd" viewBox="0 0 270.58261 251.89113"><g fill-rule="nonzero"><path fill="#898989" d="M75.489 147.334c-9.819.472-22.93-6.426-22.93-6.426-6.29-3.364-9.628-9.24-9.628-16.987v-.806c.142-1.777.573-4.568 1.667-6.986 2.418-4.685 6.361-9.13 11.687-13.196l.094-.068.074-.074c14.562-12.506 38.78-20.347 72.029-23.296-.007 0 1.408-.11 3.1-.25-.048.153-.239.745-.239.745-15.04 47.33-42.924 131.434-60.584 162.895l-5.044 9.006 62.508-21.402-1.794-3.95c-1.15-2.541-1.71-5.154-1.71-8 0-4.072.91-8.701 2.662-13.78 0-.023 37.511-109.08 43.727-127.161.097 0 .414-.017.414-.017 25.579-.573 49.671-1.11 67.985-8.349 10.013-3.48 17.618-7.938 22.642-13.254 5.581-5.49 8.434-11.13 8.434-16.766 0-4.82-2.137-9.618-6.333-14.306-3.014-3.775-8.271-6.895-15.62-9.246l-8.579-2.768 3.82 8.178c.907 1.978 1.467 3.703 1.79 5.432.017.44.081 1.784.104 2.01-.023 5.86-2.033 16.304-15.332 20.895l-.094.035c-5.598 2.069-11.425 3.121-15.3 3.639-12.402 2.302-28.77 3.134-48.732 2.473-3.273-.362-80.967-8.469-123.716 16.8-31.97 18.928-34.42 39.692-33.002 50.392.343 2.92 2.797 17.98 16.359 24.478l-.263-.146c3.75 2.179 14.588 6.967 33.834 4.474 8.731-.621 15.97-4.218 15.97-4.218z"/><path stroke="#000" stroke-width="1.1654532" d="M40.872 109.683c2.266-4.328 5.947-8.456 10.906-12.266l.182-.123.152-.14c13.985-12.017 37.45-19.618 69.69-22.567-15.205 47.712-42.224 128.808-59.405 159.411L53.99 249l71.717-24.568-2.95-6.579c-.996-2.191-1.475-4.451-1.475-6.924 0-3.775.848-8.116 2.512-12.91 0-.024 42.008-122.173 43.141-125.44 25.242-.579 49.033-1.242 67.47-8.504 10.318-3.58 18.268-8.262 23.587-13.898 6.035-5.934 9.127-12.208 9.127-18.563 0-5.452-2.335-10.82-6.919-15.98-3.36-4.176-9.025-7.565-16.834-10.08L229.047.962l2.545 5.438 3.794 8.194c.816 1.687 1.318 3.173 1.586 4.662 0 .227.081 1.496.081 1.683-.022 6.271-2.405 14.533-13.574 18.372l-.136.062c-5.361 1.991-10.981 3.007-14.733 3.51h-.075l-.068.012c-12.156 2.26-28.32 3.079-48.065 2.441-4.377-.482-81.818-8.491-125.218 17.165C6.219 79.627.583 98.498.583 110.577c0 1.787.116 3.441.31 4.914.386 3.124 3.005 19.049 17.401 26.245l-.016.017c.03.013.068.035.075.042 0 0 .08.042.139.068 4.16 2.363 15.51 7.229 35.148 4.707h-.02.091c9.097-.683 16.55-4.329 16.873-4.487l-1.308-4.973c-8.964.434-21.47-6.063-21.586-6.128-5.452-2.914-8.207-7.857-8.207-14.669 0 0 0-.45.02-.654.097-1.343.417-3.833 1.369-5.976z"/><path stroke="#000" stroke-width="1.1654532" d="M260.145 15.557c.026.026.026.048.062.074.006.02.029.026.048.036z"/><path fill="#fff" d="M69.403 139.739c-9.806.463-22.934-6.426-22.934-6.426-6.313-3.37-9.621-9.256-9.621-17l.016-.806c.159-1.774.557-4.555 1.66-6.98 2.425-4.694 6.34-9.129 11.678-13.189l.09-.074.088-.075c14.552-12.512 38.774-20.353 72.022-23.302-.016 0 1.414-.104 3.091-.256-.032.159-.233.758-.233.758-15.04 47.324-42.92 131.434-60.574 162.9l-5.054 8.994 62.495-21.402-1.781-3.943c-1.143-2.535-1.687-5.154-1.687-8.01 0-4.062.897-8.701 2.632-13.787.013 0 37.528-109.06 43.75-127.154.088-.007.408-.007.408-.007 25.562-.58 49.668-1.123 67.982-8.352 10.022-3.47 17.62-7.929 22.658-13.25 5.555-5.485 8.4-11.134 8.4-16.767 0-4.801-2.13-9.628-6.302-14.306-3.02-3.775-8.278-6.89-15.63-9.253l-8.599-2.764 3.833 8.187c.91 1.962 1.496 3.694 1.794 5.416.026.457.087 1.784.11 2.017-.023 5.86-2.033 16.31-15.345 20.878l-.09.042c-5.598 2.078-11.4 3.124-15.31 3.645-12.396 2.312-28.748 3.13-48.697 2.483-3.302-.356-80.986-8.475-123.735 16.805-31.986 18.923-34.41 39.684-33.015 50.393.333 2.901 2.81 17.974 16.368 24.472l-.278-.15c3.778 2.18 14.603 6.961 33.827 4.475 8.731-.625 15.983-4.212 15.983-4.212z"/><path fill="#c7004e" d="M225.619 45.525c16.255-5.591 18.016-19.123 18.016-24.669l-.159-2.49c-.392-2.405-1.185-4.525-2.127-6.558 6.449 2.055 11.253 4.785 13.81 8.009 3.659 4.043 5.4 7.938 5.4 11.797 0 4.561-2.46 9.282-7.303 14.015-4.603 4.901-11.729 9.035-21.211 12.315-17.666 6.986-41.461 7.523-66.648 8.096-.074 0-3.195.068-3.195.068l-44.624 129.754c-1.894 5.49-2.868 10.564-2.868 15.067 0 3.645.78 6.805 2.055 9.628-2.515.87-43.257 14.814-48.641 16.662 17.725-31.596 45.54-115.337 60.888-163.642l2.027-6.349-8.977.732c-34.08 3.02-59.053 11.185-74.256 24.241-5.804 4.432-10.146 9.36-12.84 14.588-1.372 3.007-1.874 6.306-2.032 8.553-.02.11-.02.975-.02.975 0 9.161 4.154 16.432 11.684 20.463l.965.473c-.275-.159 1.039.488 1.039.488-.136-.074 1.547.625 1.547.625 1.473.609 3.092 1.16 4.776 1.677-17.677 2.29-27.674-1.845-31.354-3.982-11.72-5.6-13.863-18.832-14.167-21.415-1.276-9.757 1.075-28.728 31.117-46.498 42.145-24.922 120.69-16.352 121.457-16.255 20.347.667 36.984-.175 49.567-2.522l-.077.01c4.101-.538 10.207-1.655 16.15-3.856z"/></g></svg>