<svg xmlns="http://www.w3.org/2000/svg" width="259.1058" height="270.00018" fill-rule="evenodd" stroke-linejoin="round" stroke-miterlimit="1.41421" clip-rule="evenodd" viewBox="0 0 259.1058 270.00018"><g fill-rule="nonzero"><path fill="#a1a0a4" d="m117.22 105.96 9.866 19.332s17.83-6.415 21.127-7.61a343725.58 343725.58 0 0 1-25.545 100.246c-.821 3.618-4.025 9.86-9.212 11.248l-5.22 1.408L98.364 270l15.339-4.379c51.825-14.778 127.04-32.08 127.754-32.234-.254.034 4.6-1.048 4.6-1.048l.653-.153.167-.627 12.229-40.698-15.994-2.89-1.261 1.12c-6.655 5.848-16.214 12.677-20.039 13.511.02 0-7.923 1.83-7.923 1.83s-27.348 6.3-30.565 7.055c.928-3.498 40.825-154.1 40.825-154.1Z"/><path fill="#a1a0a4" d="M86.115 1.416C50.77 7.864 29.684 29.284 29.684 58.74l.5 7.95c2.37 18.757 14.439 34.096 26.127 48.935.02.027 6.535 8.691 8.884 11.788C62.532 128.422 0 152.332 0 152.332l.981 7.243c1.876 13.864 9.432 26.626 20.766 34.997 9.539 7.029 26.514 14.465 53.18 9.993 37.08-6.228 64.815-38.863 61.838-72.739-1.855-21.16-13.904-35.598-25.559-49.549-10.866-13.01-21.113-25.265-20.011-41.452.507-7.369 3.484-11.714 8.217-11.908 1.895-.093 3.25.58 4.479 2.276 1.548 2.136 2.516 5.534 2.516 8.851 0 1.703-.267 3.291-.734 4.613l-1.208 3.204 7.062 11.127 44.069-18.516-1.222-7.23c-1.488-8.484-7.049-16.46-15.626-22.468-13.684-9.572-32.862-12.983-52.633-9.358Zm-10.1 146.21c.348 1.395.935 3.705.935 3.705l.467 6.194c0 6.121-1.461 11.008-4.325 14.492-2.79 3.364-6.922 5.287-11.962 5.554-5.607.293-10.42-1.375-14.258-4.973-2.503-2.33-4.419-5.52-5.633-9.012 0-.013 32.494-14.912 34.777-15.96z"/><path fill="#0066b3" d="m123.629 108.217 5.754 11.254s19.711-7.089 25.552-9.172c-1.936 7.597-27.722 108.71-27.722 108.71-1.288 5.828-5.767 12.87-12.542 14.686.013 0-1.282.347-1.282.347l-1.281.333-7.223 28.877 7.516-2.136c52.086-14.846 127.36-32.154 128.015-32.308.026 0 2.583-.594 2.583-.594l9.946-33.141-8.985-1.596-.8.688c-6.449 5.367-15.62 11.995-20.346 13.016 0 0 .153-.027.293-.027-.734.134-5.293 1.182-42.787 9.86-1.909.42-2.877.24-3.09.153.166.013.013-1.168.694-3.598.013-.06 39.169-147.826 39.169-147.826z"/><path fill="#fff" d="m246.69 200.152-7.262 24.25s-75.655 17.343-128.268 32.348l4.692-18.697c8.898-2.403 14.258-11.274 15.747-17.929l29.824-116.974-29.824 10.72-1.796-3.49 80.475-36.58-36.713 138.548c-1.649 5.967-.734 10.867 7.756 9.058l42.44-9.8c5.734-1.254 14.599-7.802 19.845-12.008z"/><path fill="#0066b3" d="M86.97 6.022C53.5 12.129 34.33 31.474 34.33 58.468c0 2.483.16 5.02.494 7.63 2.203 17.474 13.884 32.32 25.191 46.671 4.513 5.714 8.778 11.308 12.443 16.875-.24.093-67.292 25.752-67.292 25.752l.461 3.538c1.709 12.636 8.584 24.244 18.904 31.847 12.636 9.345 29.797 12.495 49.636 9.171 30.284-5.093 61.05-32.42 57.932-67.718-1.722-19.719-13.29-33.576-24.51-46.98-11.461-13.71-22.288-26.66-21.06-44.742.687-9.746 5.527-15.987 12.676-16.288 3.457-.16 6.294 1.269 8.484 4.226 3.344 4.579 4.399 12.389 2.396 17.809l-.414 1.081 3.878 5.714 36.813-15.446-.634-3.558c-1.241-7.249-6.094-14.138-13.65-19.451-12.663-8.838-30.579-11.962-49.109-8.577Zm-8.084 135.143c1.322 3.137 2.256 6.314 2.703 9.525.334 2.37.508 4.646.508 6.815 0 7.19-1.83 13.144-5.394 17.49-3.658 4.411-8.951 6.934-15.353 7.248-6.835.347-12.95-1.795-17.688-6.228-5.895-5.493-7.57-11.821-8.077-15.005 2.87-1.309 43.214-19.805 43.3-19.845z"/><path fill="#fff" d="m116.426 46.946 28.857-12.128c-2.724-15.767-26.74-29.958-57.5-24.337-35.377 6.448-51.851 28.135-48.46 55.069 3.985 31.5 42.68 55.696 46.765 84.5 3.264 23.182-8.57 35.891-24.497 36.719-20.52 1.041-30.652-16.961-30.879-28.503l43.715-20.045-2.063-3.705-62.251 23.817c2.843 21.1 22.588 43.975 63.306 37.14 30.291-5.106 56.892-31.847 54.175-62.859-3.358-38.295-48.18-54.402-45.584-92.43.888-13.016 8.003-20.098 16.994-20.492 12.897-.574 18.304 14.271 16.174 25.078z"/></g></svg>