<svg xmlns="http://www.w3.org/2000/svg" xml:space="preserve" width="1000px" height="866.1px" x="0px" y="0px" viewBox="0 0 1000 866.1"><path fill="#231815" d="m986.856 385.165 1.081 2.606-5.025-192.719-26.272-8.125c-15.787-4.881-70.853-21.003-116.498-23.516-43.864-2.415-85.018 7.515-115.856 27.961-6.83 4.527-13.104 9.479-18.81 14.822 2.05-6.786 35.261-108.424 35.261-108.424H532.302s57.535 194.216 59.496 200.742l-.023-.085.046.198c5.422 20.368 20.855 32.954 41.267 33.67.514.016 1.065.027 1.649.027 10.046 0 21.469-3.388 30.36-11.862 1.742 15.829 6.191 30.854 13.345 44.977l-23.239-1.272-.79 161.546-9.938 20.874c-14.146 29.703-44.486 86.475-88.739 132.952-39.229 41.196-78.9 63.638-117.95 66.734-15.938-1.455-31.974-8.666-31.974-18.631V174.664c0-34.168 2.003-50.974 7.141-59.95 4.982-8.696 18.175-17.708 42.367-32.317l18.517-11.174V.043H0v71.386l18.79 11.132c25.466 15.095 37.185 22.698 42.489 32.177 5.735 10.248 6.747 27.49 6.747 59.927v516.768c0 31.474-1.091 49.388-7.042 59.951-5.472 9.716-17.059 17.261-42.194 32.149L0 794.672v71.385h695.916l30.994-285.151c26.164 8.032 58.212 15.688 89.156 17.392 4.329.241 8.782.358 13.235.358 26.386 0 65.166-4.248 100.05-24.486 42.608-24.713 66.909-65.508 70.277-117.979 1.712-26.648-2.488-50.16-12.772-71.026"/><path fill="#FFF" d="M610.163 293.034c.07.229.124.45.187.665 4.349 16.358 16.546 19.205 23.438 19.446.296.012.614.016.949.016 6.409 0 19.626-2.209 24.499-19.56.066-.229.128-.455.19-.681 3.064-10.202 53.549-175.982 53.549-175.982H558.474s51.246 174.614 51.689 176.096"/><path fill="#FFF" d="m948.099 363.84 20.128 1.104-4.107-155.641-13.139-4.064c-15.262-4.718-68.434-20.299-111.894-22.691-39.784-2.189-76.791 6.62-104.211 24.799-31.072 20.599-48.772 51.445-51.196 89.195-2.107 32.9 8.199 62.331 30.652 87.476 18.12 20.299 41.095 34.382 57.866 44.662 4.22 2.582 8.194 5.021 11.586 7.246 61.063 39.796 67.239 45.754 66.085 63.747-.459 7.164-1.553 23.966-24.231 22.702-34.051-1.875-74.431-47.653-110.765-125.6l-4.858-10.412-35.743-1.957-.767 135.884.07 6.332-6.597 17.28-5.203 10.925c-14.632 30.734-46.07 89.521-92.167 137.928-43.098 45.264-87.464 69.729-131.893 72.738-24.811-1.781-51.067-14.258-51.067-37.852V174.668c0-38.823 2.536-57.002 9.673-69.476 7.156-12.5 20.929-22.196 49.096-39.201l9.256-5.589V19.21H19.165v41.298l9.395 5.569c53.664 31.8 58.63 36.797 58.63 108.591v516.771c0 71.448-5.803 77.282-58.63 108.584l-9.395 5.569v41.306h659.56l31.698-291.636c26.86 9.533 67.951 21.762 106.701 23.896 3.566.198 7.666.331 12.178.331 23.744 0 59.114-3.73 90.432-21.901 36.82-21.353 57.835-56.839 60.768-102.625 2.659-41.464-10.615-69.078-32.403-91.123m-68.457-48.617c-2.913-1.75-5.873-3.523-8.798-5.29-54.73-33.37-62.288-41.709-61.437-54.979 1.027-15.97 15.13-17.145 19.261-17.145.439 0 .77.012.953.023 25.479 1.4 61.918 42.822 92.321 104.224-13.009-9.249-27.388-17.88-42.3-26.833"/><path fill="#CF0A2C" d="M583.404 136.105h104.281c-4.402 13.313-35.331 113.736-46.613 151.304-1.008 3.373-1.381 6.764-6.62 6.581-4.873-.171-4.967-3.247-5.936-6.464-14.604-48.66-44.657-149.286-45.112-151.421M38.33 816.515c59.251-35.113 68.023-47.179 68.023-125.075V174.668c0-78.997-8.772-89.973-68.023-125.082V38.377h397.177v11.209c-58.146 35.109-68.021 46.085-68.021 125.082v552.974c0 34.017 32.912 54.864 70.215 57.058 110.816-6.589 197.491-129.47 241.383-221.634h11.213l-28.77 264.658H38.33v-11.209zM692.734 527.968l.599-123.324 4.166.229c29.396 63.054 74.497 133.743 127.089 136.634 20.307 1.12 42.309-7.826 44.413-40.609 1.976-30.851-15.565-42.456-74.75-81.031-30.59-20.062-96.056-50.271-91.447-122.096 4.274-66.523 64.42-99.979 135.233-96.083 35.405 1.945 80.639 13.629 107.28 21.862l3.205 121.115-4.169-.226c-25.725-55.112-69.942-123.336-113.679-125.743-19.261-1.058-38.848 10.921-40.392 35.027-1.637 25.55 14.769 38.544 70.589 72.576 60.868 36.727 104.865 59.464 100.505 127.435-5.628 87.733-83.326 109.584-143.203 106.289-42.696-2.348-93.374-18.684-125.439-32.055"/></svg>